<svg id="Capa_1" enable-background="new 0 0 512 512" height="512" viewBox="0 0 512 512" width="512" xmlns="http://www.w3.org/2000/svg" xmlns:xlink="http://www.w3.org/1999/xlink"><linearGradient id="SVGID_1_" gradientUnits="userSpaceOnUse" x1="256" x2="256" y1="451" y2="61"><stop offset="0" stop-color="#a93aff"/><stop offset="1" stop-color="#ff81ff"/></linearGradient><g><g><path d="m157.277 181h-112.277c-8.284 0-15 6.716-15 15s6.716 15 15 15h112.277c8.284 0 15-6.716 15-15s-6.715-15-15-15zm0 180h-112.277c-8.284 0-15 6.716-15 15s6.716 15 15 15h112.277c8.284 0 15-6.716 15-15s-6.715-15-15-15zm-5.277-75c0-8.284-6.716-15-15-15h-122c-8.284 0-15 6.716-15 15s6.716 15 15 15h122c8.284 0 15-6.716 15-15zm210-164.311v-30.689h15c8.284 0 15-6.716 15-15s-6.716-15-15-15h-60c-8.284 0-15 6.716-15 15s6.716 15 15 15h15v30.689c-83.977 7.604-150 78.387-150 164.311 0 90.981 74.019 165 165 165s165-74.019 165-165c0-85.924-66.023-156.707-150-164.311zm-15 299.311c-74.439 0-135-60.561-135-135s60.561-135 135-135 135 60.561 135 135-60.561 135-135 135zm91-150h-76v-75c0-8.284-6.716-15-15-15-57.897 0-105 47.103-105 105s47.103 105 105 105c58.051 0 106-47.117 106-105 0-8.284-6.716-15-15-15zm-91 90c-41.355 0-75-33.645-75-75 0-36.219 25.81-66.524 60-73.493v73.493c0 8.284 6.716 15 15 14.99h74.473c-7.062 34.201-37.772 60.01-74.473 60.01z" fill="url(#SVGID_1_)"/></g></g></svg>